<svg width="38" height="38" viewBox="0 0 38 38" fill="none" xmlns="http://www.w3.org/2000/svg">
<mask id="mask0_146_63" style="mask-type:alpha" maskUnits="userSpaceOnUse" x="0" y="0" width="38" height="38">
<rect width="38" height="38" fill="#D9D9D9"/>
</mask>
<g mask="url(#mask0_146_63)">
<path d="M11.0833 31.6667V14.2104C11.0833 13.3396 11.4 12.6007 12.0333 11.9938C12.6666 11.3868 13.4187 11.0833 14.2896 11.0833H31.6666C32.5375 11.0833 33.283 11.3934 33.9031 12.0136C34.5232 12.6337 34.8333 13.3792 34.8333 14.25V26.9167L26.9166 34.8333H14.25C13.3791 34.8333 12.6337 34.5233 12.0135 33.9031C11.3934 33.283 11.0833 32.5375 11.0833 31.6667ZM3.20623 9.89584C3.0479 9.02501 3.21943 8.23994 3.72081 7.54064C4.2222 6.84133 4.90831 6.41251 5.77915 6.25418L22.9583 3.20626C23.8291 3.04793 24.6142 3.21946 25.3135 3.72084C26.0128 4.22223 26.4416 4.90834 26.6 5.77918L26.9958 7.91668H23.75L23.4729 6.33334L6.33331 9.38126L7.91665 18.3271V29.3708C7.49443 29.1333 7.13158 28.8167 6.82811 28.4208C6.52463 28.025 6.33331 27.5764 6.25415 27.075L3.20623 9.89584ZM14.25 14.25V31.6667H25.3333V25.3333H31.6666V14.25H14.25Z" fill="#F5F5F5"/>
</g>
</svg>
