<svg width="74" height="71" viewBox="0 0 74 71" fill="none" xmlns="http://www.w3.org/2000/svg">
<g filter="url(#filter0_d_155_63)">
<mask id="mask0_155_63" style="mask-type:alpha" maskUnits="userSpaceOnUse" x="4" y="0" width="70" height="70">
<rect x="4" width="70" height="70" fill="#D9D9D9"/>
</mask>
<g mask="url(#mask0_155_63)">
<g filter="url(#filter1_d_155_63)">
<path d="M32.5 45.9L43.9 34.5L32.5 23.1L28.51 27.09L33.07 31.65H21.1V37.35H33.07L28.51 41.91L32.5 45.9ZM32.5 63C28.5575 63 24.8525 62.2519 21.385 60.7556C17.9175 59.2594 14.9012 57.2288 12.3362 54.6637C9.77125 52.0988 7.74063 49.0825 6.24437 45.615C4.74812 42.1475 4 38.4425 4 34.5C4 30.5575 4.74812 26.8525 6.24437 23.385C7.74063 19.9175 9.77125 16.9012 12.3362 14.3362C14.9012 11.7712 17.9175 9.74063 21.385 8.24437C24.8525 6.74812 28.5575 6 32.5 6C36.4425 6 40.1475 6.74812 43.615 8.24437C47.0825 9.74063 50.0988 11.7712 52.6637 14.3362C55.2288 16.9012 57.2594 19.9175 58.7556 23.385C60.2519 26.8525 61 30.5575 61 34.5C61 38.4425 60.2519 42.1475 58.7556 45.615C57.2594 49.0825 55.2288 52.0988 52.6637 54.6637C50.0988 57.2288 47.0825 59.2594 43.615 60.7556C40.1475 62.2519 36.4425 63 32.5 63Z" fill="#FF3D00"/>
</g>
</g>
</g>
<defs>
<filter id="filter0_d_155_63" x="0" y="6" width="65" height="65" filterUnits="userSpaceOnUse" color-interpolation-filters="sRGB">
<feFlood flood-opacity="0" result="BackgroundImageFix"/>
<feColorMatrix in="SourceAlpha" type="matrix" values="0 0 0 0 0 0 0 0 0 0 0 0 0 0 0 0 0 0 127 0" result="hardAlpha"/>
<feOffset dy="4"/>
<feGaussianBlur stdDeviation="2"/>
<feComposite in2="hardAlpha" operator="out"/>
<feColorMatrix type="matrix" values="0 0 0 0 0 0 0 0 0 0 0 0 0 0 0 0 0 0 0.25 0"/>
<feBlend mode="normal" in2="BackgroundImageFix" result="effect1_dropShadow_155_63"/>
<feBlend mode="normal" in="SourceGraphic" in2="effect1_dropShadow_155_63" result="shape"/>
</filter>
<filter id="filter1_d_155_63" x="-3" y="6" width="65" height="65" filterUnits="userSpaceOnUse" color-interpolation-filters="sRGB">
<feFlood flood-opacity="0" result="BackgroundImageFix"/>
<feColorMatrix in="SourceAlpha" type="matrix" values="0 0 0 0 0 0 0 0 0 0 0 0 0 0 0 0 0 0 127 0" result="hardAlpha"/>
<feOffset dx="-3" dy="4"/>
<feGaussianBlur stdDeviation="2"/>
<feComposite in2="hardAlpha" operator="out"/>
<feColorMatrix type="matrix" values="0 0 0 0 0.6 0 0 0 0 0.6 0 0 0 0 0.6 0 0 0 0.25 0"/>
<feBlend mode="normal" in2="BackgroundImageFix" result="effect1_dropShadow_155_63"/>
<feBlend mode="normal" in="SourceGraphic" in2="effect1_dropShadow_155_63" result="shape"/>
</filter>
</defs>
</svg>
