<svg width="38" height="38" viewBox="0 0 38 38" fill="none" xmlns="http://www.w3.org/2000/svg">
<mask id="mask0_146_73" style="mask-type:alpha" maskUnits="userSpaceOnUse" x="0" y="0" width="38" height="38">
<rect width="38" height="38" fill="#D9D9D9"/>
</mask>
<g mask="url(#mask0_146_73)">
<path d="M1.58333 31.6667V27.2333C1.58333 26.3361 1.81423 25.5115 2.27604 24.7594C2.73784 24.0073 3.35138 23.4333 4.11666 23.0375C5.75277 22.2195 7.41527 21.6059 9.10416 21.1969C10.793 20.7879 12.5083 20.5833 14.25 20.5833C15.9917 20.5833 17.7069 20.7879 19.3958 21.1969C21.0847 21.6059 22.7472 22.2195 24.3833 23.0375C25.1486 23.4333 25.7621 24.0073 26.224 24.7594C26.6858 25.5115 26.9167 26.3361 26.9167 27.2333V31.6667H1.58333ZM30.0833 31.6667V26.9167C30.0833 25.7556 29.7601 24.6406 29.1135 23.5719C28.467 22.5031 27.55 21.5861 26.3625 20.8208C27.7083 20.9792 28.975 21.2497 30.1625 21.6323C31.35 22.0149 32.4583 22.4833 33.4875 23.0375C34.4375 23.5653 35.1632 24.1524 35.6646 24.799C36.166 25.4455 36.4167 26.1514 36.4167 26.9167V31.6667H30.0833ZM14.25 19C12.5083 19 11.0174 18.3799 9.77708 17.1396C8.5368 15.8993 7.91666 14.4083 7.91666 12.6667C7.91666 10.925 8.5368 9.43404 9.77708 8.19376C11.0174 6.95348 12.5083 6.33334 14.25 6.33334C15.9917 6.33334 17.4826 6.95348 18.7229 8.19376C19.9632 9.43404 20.5833 10.925 20.5833 12.6667C20.5833 14.4083 19.9632 15.8993 18.7229 17.1396C17.4826 18.3799 15.9917 19 14.25 19ZM30.0833 12.6667C30.0833 14.4083 29.4632 15.8993 28.2229 17.1396C26.9826 18.3799 25.4917 19 23.75 19C23.4597 19 23.0903 18.967 22.6417 18.9011C22.1931 18.8351 21.8236 18.7625 21.5333 18.6833C22.2458 17.8389 22.7934 16.9021 23.176 15.8729C23.5587 14.8438 23.75 13.775 23.75 12.6667C23.75 11.5583 23.5587 10.4896 23.176 9.46043C22.7934 8.43126 22.2458 7.49445 21.5333 6.65001C21.9028 6.51807 22.2722 6.4323 22.6417 6.39272C23.0111 6.35314 23.3805 6.33334 23.75 6.33334C25.4917 6.33334 26.9826 6.95348 28.2229 8.19376C29.4632 9.43404 30.0833 10.925 30.0833 12.6667ZM4.74999 28.5H23.75V27.2333C23.75 26.9431 23.6774 26.6792 23.5323 26.4417C23.3871 26.2042 23.1958 26.0195 22.9583 25.8875C21.5333 25.175 20.0951 24.6406 18.6437 24.2844C17.1924 23.9281 15.7278 23.75 14.25 23.75C12.7722 23.75 11.3076 23.9281 9.85624 24.2844C8.40486 24.6406 6.96666 25.175 5.54166 25.8875C5.30416 26.0195 5.11284 26.2042 4.9677 26.4417C4.82256 26.6792 4.74999 26.9431 4.74999 27.2333V28.5ZM14.25 15.8333C15.1208 15.8333 15.8663 15.5233 16.4865 14.9031C17.1066 14.283 17.4167 13.5375 17.4167 12.6667C17.4167 11.7958 17.1066 11.0504 16.4865 10.4302C15.8663 9.81008 15.1208 9.50001 14.25 9.50001C13.3792 9.50001 12.6337 9.81008 12.0135 10.4302C11.3934 11.0504 11.0833 11.7958 11.0833 12.6667C11.0833 13.5375 11.3934 14.283 12.0135 14.9031C12.6337 15.5233 13.3792 15.8333 14.25 15.8333Z" fill="#F5F5F5"/>
</g>
</svg>
