<svg width="38" height="38" viewBox="0 0 38 38" fill="none" xmlns="http://www.w3.org/2000/svg">
<mask id="mask0_146_83" style="mask-type:alpha" maskUnits="userSpaceOnUse" x="0" y="0" width="38" height="38">
<rect width="38" height="38" fill="#D9D9D9"/>
</mask>
<g mask="url(#mask0_146_83)">
<path d="M11.0833 26.9167C10.2125 26.9167 9.46701 26.6066 8.84687 25.9865C8.22673 25.3663 7.91666 24.6208 7.91666 23.75V7.91667C7.91666 7.04583 8.22673 6.30035 8.84687 5.68021C9.46701 5.06007 10.2125 4.75 11.0833 4.75H33.25C34.1208 4.75 34.8663 5.06007 35.4865 5.68021C36.1066 6.30035 36.4167 7.04583 36.4167 7.91667V23.75C36.4167 24.6208 36.1066 25.3663 35.4865 25.9865C34.8663 26.6066 34.1208 26.9167 33.25 26.9167H11.0833ZM22.1667 19.475L11.0833 11.7563V23.75H33.25V11.7563L22.1667 19.475ZM22.1667 15.5958L33.25 7.91667H11.0833L22.1667 15.5958ZM4.74999 33.25C3.87916 33.25 3.13368 32.9399 2.51354 32.3198C1.8934 31.6997 1.58333 30.9542 1.58333 30.0833V10.2917H4.74999V30.0833H30.875V33.25H4.74999Z" fill="white"/>
</g>
</svg>
