<svg width="38" height="38" viewBox="0 0 38 38" fill="none" xmlns="http://www.w3.org/2000/svg">
<mask id="mask0_146_88" style="mask-type:alpha" maskUnits="userSpaceOnUse" x="0" y="0" width="38" height="38">
<rect width="38" height="38" fill="#D9D9D9"/>
</mask>
<g mask="url(#mask0_146_88)">
<path d="M18.9208 28.5C19.475 28.5 19.9434 28.3087 20.326 27.926C20.7087 27.5434 20.9 27.075 20.9 26.5208C20.9 25.9667 20.7087 25.4983 20.326 25.1156C19.9434 24.733 19.475 24.5417 18.9208 24.5417C18.3667 24.5417 17.8983 24.733 17.5156 25.1156C17.133 25.4983 16.9417 25.9667 16.9417 26.5208C16.9417 27.075 17.133 27.5434 17.5156 27.926C17.8983 28.3087 18.3667 28.5 18.9208 28.5ZM17.4958 22.4042H20.425C20.425 21.5333 20.524 20.8472 20.7219 20.3458C20.9198 19.8444 21.4806 19.1583 22.4042 18.2875C23.0903 17.6014 23.6313 16.9483 24.0271 16.3281C24.4229 15.708 24.6208 14.9625 24.6208 14.0917C24.6208 12.6139 24.0799 11.4792 22.9979 10.6875C21.916 9.89582 20.6361 9.49999 19.1583 9.49999C17.6542 9.49999 16.4337 9.89582 15.4969 10.6875C14.5601 11.4792 13.9069 12.4292 13.5375 13.5375L16.15 14.5667C16.2819 14.0917 16.5788 13.5771 17.0406 13.0229C17.5024 12.4687 18.2083 12.1917 19.1583 12.1917C20.0028 12.1917 20.6361 12.4226 21.0583 12.8844C21.4806 13.3462 21.6917 13.8542 21.6917 14.4083C21.6917 14.9361 21.5333 15.4309 21.2167 15.8927C20.9 16.3545 20.5042 16.7833 20.0292 17.1792C18.8681 18.2083 18.1556 18.9868 17.8917 19.5146C17.6278 20.0423 17.4958 21.0055 17.4958 22.4042ZM19 34.8333C16.8097 34.8333 14.7514 34.4177 12.825 33.5864C10.8986 32.7552 9.22292 31.6271 7.79792 30.2021C6.37292 28.7771 5.24479 27.1014 4.41354 25.175C3.58229 23.2486 3.16667 21.1903 3.16667 19C3.16667 16.8097 3.58229 14.7514 4.41354 12.825C5.24479 10.8986 6.37292 9.22291 7.79792 7.79791C9.22292 6.37291 10.8986 5.24478 12.825 4.41353C14.7514 3.58228 16.8097 3.16666 19 3.16666C21.1903 3.16666 23.2486 3.58228 25.175 4.41353C27.1014 5.24478 28.7771 6.37291 30.2021 7.79791C31.6271 9.22291 32.7552 10.8986 33.5865 12.825C34.4177 14.7514 34.8333 16.8097 34.8333 19C34.8333 21.1903 34.4177 23.2486 33.5865 25.175C32.7552 27.1014 31.6271 28.7771 30.2021 30.2021C28.7771 31.6271 27.1014 32.7552 25.175 33.5864C23.2486 34.4177 21.1903 34.8333 19 34.8333ZM19 31.6667C22.5361 31.6667 25.5312 30.4396 27.9854 27.9854C30.4396 25.5312 31.6667 22.5361 31.6667 19C31.6667 15.4639 30.4396 12.4687 27.9854 10.0146C25.5312 7.56041 22.5361 6.33332 19 6.33332C15.4639 6.33332 12.4688 7.56041 10.0146 10.0146C7.56042 12.4687 6.33333 15.4639 6.33333 19C6.33333 22.5361 7.56042 25.5312 10.0146 27.9854C12.4688 30.4396 15.4639 31.6667 19 31.6667Z" fill="white"/>
</g>
</svg>
