<svg width="38" height="38" viewBox="0 0 38 38" fill="none" xmlns="http://www.w3.org/2000/svg">
<mask id="mask0_146_58" style="mask-type:alpha" maskUnits="userSpaceOnUse" x="0" y="0" width="38" height="38">
<rect width="38" height="38" fill="#D9D9D9"/>
</mask>
<g mask="url(#mask0_146_58)">
<path d="M7.91665 31.6667V17.1792L3.48331 20.5833L1.58331 18.05L19 4.75L25.3333 9.57917V6.33333H30.0833V13.2208L36.4166 18.05L34.5166 20.5833L30.0833 17.1792V31.6667H20.5833V22.1667H17.4166V31.6667H7.91665ZM11.0833 28.5H14.25V19H23.75V28.5H26.9166V14.7646L19 8.74792L11.0833 14.7646V28.5ZM15.8333 15.8729H22.1666C22.1666 15.0285 21.85 14.3358 21.2166 13.7948C20.5833 13.2538 19.8444 12.9833 19 12.9833C18.1555 12.9833 17.4166 13.2538 16.7833 13.7948C16.15 14.3358 15.8333 15.0285 15.8333 15.8729Z" fill="#F5F5F5"/>
</g>
</svg>
