<svg width="22" height="38" viewBox="0 0 22 38" fill="none" xmlns="http://www.w3.org/2000/svg">
<mask id="mask0_146_98" style="mask-type:alpha" maskUnits="userSpaceOnUse" x="0" y="0" width="22" height="38">
<rect width="22" height="38" fill="#D9D9D9"/>
</mask>
<g mask="url(#mask0_146_98)">
<path d="M4.00001 31.6667C3.12918 31.6667 2.38369 31.3566 1.76355 30.7365C1.14341 30.1163 0.833344 29.3708 0.833344 28.5C0.833344 27.6292 1.14341 26.8837 1.76355 26.2636C2.38369 25.6434 3.12918 25.3333 4.00001 25.3333C4.87084 25.3333 5.61633 25.6434 6.23647 26.2636C6.85661 26.8837 7.16668 27.6292 7.16668 28.5C7.16668 29.3708 6.85661 30.1163 6.23647 30.7365C5.61633 31.3566 4.87084 31.6667 4.00001 31.6667ZM4.00001 22.1667C3.12918 22.1667 2.38369 21.8566 1.76355 21.2365C1.14341 20.6163 0.833344 19.8708 0.833344 19C0.833344 18.1292 1.14341 17.3837 1.76355 16.7636C2.38369 16.1434 3.12918 15.8333 4.00001 15.8333C4.87084 15.8333 5.61633 16.1434 6.23647 16.7636C6.85661 17.3837 7.16668 18.1292 7.16668 19C7.16668 19.8708 6.85661 20.6163 6.23647 21.2365C5.61633 21.8566 4.87084 22.1667 4.00001 22.1667ZM4.00001 12.6667C3.12918 12.6667 2.38369 12.3566 1.76355 11.7365C1.14341 11.1163 0.833344 10.3708 0.833344 9.50001C0.833344 8.62918 1.14341 7.88369 1.76355 7.26355C2.38369 6.64341 3.12918 6.33334 4.00001 6.33334C4.87084 6.33334 5.61633 6.64341 6.23647 7.26355C6.85661 7.88369 7.16668 8.62918 7.16668 9.50001C7.16668 10.3708 6.85661 11.1163 6.23647 11.7365C5.61633 12.3566 4.87084 12.6667 4.00001 12.6667Z" fill="#F5F5F5"/>
</g>
</svg>
