<svg width="38" height="38" viewBox="0 0 38 38" fill="none" xmlns="http://www.w3.org/2000/svg">
<mask id="mask0_146_93" style="mask-type:alpha" maskUnits="userSpaceOnUse" x="0" y="0" width="38" height="38">
<rect width="38" height="38" fill="#D9D9D9"/>
</mask>
<g mask="url(#mask0_146_93)">
<path d="M13.9167 27.1667C14.3653 27.1667 14.7413 27.0149 15.0448 26.7115C15.3483 26.408 15.5 26.0319 15.5 25.5833C15.5 25.1347 15.3483 24.7587 15.0448 24.4552C14.7413 24.1517 14.3653 24 13.9167 24C13.4681 24 13.092 24.1517 12.7885 24.4552C12.4851 24.7587 12.3333 25.1347 12.3333 25.5833C12.3333 26.0319 12.4851 26.408 12.7885 26.7115C13.092 27.0149 13.4681 27.1667 13.9167 27.1667ZM12.3333 20.8333H15.5V11.3333H12.3333V20.8333ZM20.25 27.1667H31.3333V24H20.25V27.1667ZM20.25 20.8333H31.3333V17.6667H20.25V20.8333ZM20.25 14.5H31.3333V11.3333H20.25V14.5ZM9.16667 33.5C8.29583 33.5 7.55035 33.1899 6.93021 32.5698C6.31007 31.9497 6 31.2042 6 30.3333V8.16667C6 7.29583 6.31007 6.55035 6.93021 5.93021C7.55035 5.31007 8.29583 5 9.16667 5H34.5C35.3708 5 36.1163 5.31007 36.7365 5.93021C37.3566 6.55035 37.6667 7.29583 37.6667 8.16667V30.3333C37.6667 31.2042 37.3566 31.9497 36.7365 32.5698C36.1163 33.1899 35.3708 33.5 34.5 33.5H9.16667ZM9.16667 30.3333H34.5V8.16667H9.16667V30.3333Z" fill="#F5F5F5"/>
</g>
</svg>
