<svg width="37" height="37" viewBox="0 0 37 37" fill="none" xmlns="http://www.w3.org/2000/svg">
<mask id="mask0_146_68" style="mask-type:alpha" maskUnits="userSpaceOnUse" x="0" y="0" width="37" height="37">
<rect width="37" height="37" fill="#D9D9D9"/>
</mask>
<g mask="url(#mask0_146_68)">
<path d="M30.2167 32.375L20.5042 22.6625C19.7333 23.2792 18.8469 23.7674 17.8448 24.1271C16.8427 24.4868 15.7764 24.6667 14.6458 24.6667C11.8451 24.6667 9.47483 23.6967 7.5349 21.7568C5.59497 19.8168 4.625 17.4465 4.625 14.6458C4.625 11.8451 5.59497 9.47483 7.5349 7.5349C9.47483 5.59497 11.8451 4.625 14.6458 4.625C17.4465 4.625 19.8168 5.59497 21.7568 7.5349C23.6967 9.47483 24.6667 11.8451 24.6667 14.6458C24.6667 15.7764 24.4868 16.8427 24.1271 17.8448C23.7674 18.8469 23.2792 19.7333 22.6625 20.5042L32.375 30.2167L30.2167 32.375ZM14.6458 21.5833C16.5729 21.5833 18.2109 20.9089 19.5599 19.5599C20.9089 18.2109 21.5833 16.5729 21.5833 14.6458C21.5833 12.7188 20.9089 11.0807 19.5599 9.73177C18.2109 8.38281 16.5729 7.70833 14.6458 7.70833C12.7188 7.70833 11.0807 8.38281 9.73177 9.73177C8.38281 11.0807 7.70833 12.7188 7.70833 14.6458C7.70833 16.5729 8.38281 18.2109 9.73177 19.5599C11.0807 20.9089 12.7188 21.5833 14.6458 21.5833Z" fill="#1C1B1F"/>
</g>
</svg>
