<svg width="38" height="38" viewBox="0 0 38 38" fill="none" xmlns="http://www.w3.org/2000/svg">
<mask id="mask0_146_78" style="mask-type:alpha" maskUnits="userSpaceOnUse" x="0" y="0" width="38" height="38">
<rect width="38" height="38" fill="#D9D9D9"/>
</mask>
<g mask="url(#mask0_146_78)">
<path d="M33.2896 17.4958V30.0833C33.2896 30.9542 32.9795 31.6997 32.3594 32.3198C31.7392 32.9399 30.9937 33.25 30.1229 33.25H7.95625C7.08541 33.25 6.33993 32.9399 5.71979 32.3198C5.09965 31.6997 4.78958 30.9542 4.78958 30.0833V17.4958C4.18264 16.9417 3.71423 16.2292 3.38437 15.3583C3.05451 14.4875 3.04791 13.5375 3.36458 12.5083L5.02708 7.125C5.23819 6.43889 5.61423 5.87153 6.15521 5.42292C6.69618 4.97431 7.32291 4.75 8.03541 4.75H30.0437C30.7562 4.75 31.3764 4.96771 31.9042 5.40312C32.4319 5.83854 32.8146 6.4125 33.0521 7.125L34.7146 12.5083C35.0312 13.5375 35.0246 14.4743 34.6948 15.3188C34.3649 16.1632 33.8965 16.8889 33.2896 17.4958ZM22.5229 15.8333C23.2354 15.8333 23.7764 15.5892 24.1458 15.101C24.5153 14.6128 24.6604 14.0653 24.5812 13.4583L23.7104 7.91667H20.6229V13.775C20.6229 14.3292 20.8076 14.8108 21.1771 15.2198C21.5465 15.6288 21.9951 15.8333 22.5229 15.8333ZM15.3979 15.8333C16.0049 15.8333 16.4997 15.6288 16.8823 15.2198C17.2649 14.8108 17.4562 14.3292 17.4562 13.775V7.91667H14.3687L13.4979 13.4583C13.3924 14.0917 13.5309 14.6458 13.9135 15.1208C14.2962 15.5958 14.791 15.8333 15.3979 15.8333ZM8.35208 15.8333C8.82708 15.8333 9.24271 15.6618 9.59896 15.3188C9.95521 14.9757 10.1729 14.5403 10.2521 14.0125L11.1229 7.91667H8.03541L6.45208 13.2208C6.29375 13.7486 6.37951 14.316 6.70937 14.9229C7.03923 15.5299 7.5868 15.8333 8.35208 15.8333ZM29.7271 15.8333C30.4924 15.8333 31.0465 15.5299 31.3896 14.9229C31.7326 14.316 31.8118 13.7486 31.6271 13.2208L29.9646 7.91667H26.9562L27.8271 14.0125C27.9062 14.5403 28.124 14.9757 28.4802 15.3188C28.8365 15.6618 29.2521 15.8333 29.7271 15.8333ZM7.95625 30.0833H30.1229V18.9208C29.991 18.9736 29.9052 19 29.8656 19H29.7271C29.0146 19 28.3878 18.8813 27.8469 18.6438C27.3059 18.4063 26.7715 18.0236 26.2437 17.4958C25.7687 17.9708 25.2278 18.3403 24.6208 18.6042C24.0139 18.8681 23.3674 19 22.6812 19C21.9687 19 21.3024 18.8681 20.6823 18.6042C20.0621 18.3403 19.5146 17.9708 19.0396 17.4958C18.591 17.9708 18.0698 18.3403 17.476 18.6042C16.8823 18.8681 16.2424 19 15.5562 19C14.791 19 14.0983 18.8681 13.4781 18.6042C12.858 18.3403 12.3104 17.9708 11.8354 17.4958C11.2812 18.05 10.7337 18.4392 10.1927 18.6635C9.65173 18.8878 9.03819 19 8.35208 19H8.17395C8.10798 19 8.03541 18.9736 7.95625 18.9208V30.0833Z" fill="black"/>
</g>
</svg>
