<svg width="38" height="38" viewBox="0 0 38 38" fill="none" xmlns="http://www.w3.org/2000/svg">
<mask id="mask0_2130_65" style="mask-type:alpha" maskUnits="userSpaceOnUse" x="0" y="0" width="38" height="38">
<rect width="38" height="38" fill="#D9D9D9"/>
</mask>
<g mask="url(#mask0_2130_65)">
<path d="M17.7879 34.8333C15.664 34.8333 13.668 34.4177 11.8 33.5864C9.93197 32.7552 8.30705 31.6271 6.92523 30.2021C5.54342 28.7771 4.44948 27.1014 3.64342 25.175C2.83736 23.2486 2.43433 21.1903 2.43433 19C2.43433 16.8097 2.83736 14.7514 3.64342 12.825C4.44948 10.8986 5.54342 9.22291 6.92523 7.79791C8.30705 6.37291 9.93197 5.24478 11.8 4.41353C13.668 3.58228 15.664 3.16666 17.7879 3.16666C19.9118 3.16666 21.9077 3.58228 23.7757 4.41353C25.6438 5.24478 27.2687 6.37291 28.6505 7.79791C30.0323 9.22291 31.1262 10.8986 31.9323 12.825C32.7384 14.7514 33.1414 16.8097 33.1414 19C33.1414 21.1903 32.7384 23.2486 31.9323 25.175C31.1262 27.1014 30.0323 28.7771 28.6505 30.2021C27.2687 31.6271 25.6438 32.7552 23.7757 33.5864C21.9077 34.4177 19.9118 34.8333 17.7879 34.8333ZM19.3232 31.5479C22.3683 31.1521 24.9209 29.7733 26.9808 27.4114C29.0407 25.0496 30.0707 22.2458 30.0707 19C30.0707 15.7542 29.0407 12.9503 26.9808 10.5885C24.9209 8.22673 22.3683 6.84791 19.3232 6.45207V31.5479Z" fill="#F5F5F5"/>
</g>
</svg>
