<svg width="38" height="38" viewBox="0 0 38 38" fill="none" xmlns="http://www.w3.org/2000/svg">
<mask id="mask0_162_276" style="mask-type:alpha" maskUnits="userSpaceOnUse" x="0" y="0" width="38" height="38">
<rect width="38" height="38" fill="#D9D9D9"/>
</mask>
<g mask="url(#mask0_162_276)">
<path d="M19 34.8333C16.8097 34.8333 14.7513 34.4177 12.825 33.5864C10.8986 32.7552 9.22288 31.6271 7.79788 30.2021C6.37288 28.7771 5.24475 27.1014 4.4135 25.175C3.58225 23.2486 3.16663 21.1903 3.16663 19C3.16663 16.8097 3.58225 14.7514 4.4135 12.825C5.24475 10.8986 6.37288 9.22291 7.79788 7.79791C9.22288 6.37291 10.8986 5.24478 12.825 4.41353C14.7513 3.58228 16.8097 3.16666 19 3.16666C21.1902 3.16666 23.2486 3.58228 25.175 4.41353C27.1013 5.24478 28.777 6.37291 30.202 7.79791C31.627 9.22291 32.7552 10.8986 33.5864 12.825C34.4177 14.7514 34.8333 16.8097 34.8333 19C34.8333 21.1903 34.4177 23.2486 33.5864 25.175C32.7552 27.1014 31.627 28.7771 30.202 30.2021C28.777 31.6271 27.1013 32.7552 25.175 33.5864C23.2486 34.4177 21.1902 34.8333 19 34.8333ZM20.5833 31.5479C23.7236 31.1521 26.3559 29.7733 28.4802 27.4114C30.6045 25.0496 31.6666 22.2458 31.6666 19C31.6666 15.7542 30.6045 12.9503 28.4802 10.5885C26.3559 8.22673 23.7236 6.84791 20.5833 6.45207V31.5479Z" fill="white"/>
</g>
</svg>
